<?xml version="1.0" encoding="UTF-8"?>
<!-- Generator: visioncortex VTracer 0.6.3 -->
<svg version="1.1" xmlns="http://www.w3.org/2000/svg" width="1280" height="720">
<path d="M0 0 C0.76 -0 1.52 -0 2.3 -0 C23.13 0.02 43.37 2.64 62.88 10.25 C64.56 10.68 66.25 11.09 67.94 11.5 C81.11 15.03 94.74 21.95 103.88 32.25 C104.12 35 104.12 35 103.88 37.25 C95.79 37.8 88.52 35.95 80.75 34 C76.93 33.05 73.1 32.14 69.26 31.23 C68.52 31.05 67.77 30.88 67 30.69 C35.49 23.23 1.43 22.11 -27.19 39.23 C-29.16 40.27 -30.95 40.8 -33.12 41.25 C-33.12 41.91 -33.12 42.57 -33.12 43.25 C-33.71 43.35 -34.29 43.44 -34.89 43.54 C-37.6 44.4 -38.84 45.6 -40.81 47.62 C-41.41 48.23 -42.02 48.84 -42.64 49.46 C-44.34 51.29 -44.34 51.29 -45.12 54.25 C-45.78 55.24 -46.44 56.23 -47.12 57.25 C-47.45 58.24 -47.78 59.23 -48.12 60.25 C-48.54 61.08 -48.96 61.9 -49.39 62.75 C-52.66 69.23 -54.89 75.37 -56.44 82.44 C-56.6 83.16 -56.76 83.88 -56.92 84.63 C-59.38 96.63 -59.4 108.77 -59.6 120.97 C-59.64 123.24 -59.69 125.51 -59.75 127.77 C-59.75 128.47 -59.76 129.16 -59.77 129.87 C-59.86 133.48 -60.16 136.17 -62.12 139.25 C-65.87 139.33 -68.06 139.05 -71.09 136.78 C-79.23 128.41 -84.51 116.56 -86.71 105.18 C-87.23 102.74 -88.19 100.56 -89.12 98.25 C-94.25 74.8 -87.79 49.21 -75.12 29.25 C-63.01 12.11 -42.83 5.24 -23.12 1.25 C-15.43 -0.01 -7.78 0.01 0 0 Z M-89.12 69.25 C-88.12 72.25 -88.12 72.25 -88.12 72.25 Z M-89.12 88.25 C-88.12 92.25 -88.12 92.25 -88.12 92.25 Z " fill="#4B609A" transform="translate(226.125,234.75)"/>
<path d="M0 0 C0.99 2.52 1.97 5.04 2.94 7.56 C3.22 8.27 3.49 8.97 3.78 9.7 C5.48 14.15 6.35 18.25 7 23 C7.66 23.99 8.32 24.98 9 26 C9.14 26.97 9.29 27.94 9.44 28.94 C9.75 31.95 9.75 31.95 11.37 33.74 C13.49 36.68 14.52 39.85 15.69 43.25 C21.57 59.55 29.81 75.72 41 89 C41.67 89.81 42.33 90.62 43.02 91.46 C53.84 104.13 67.8 112.99 84 117 C86.33 117.07 88.67 117.1 91 117 C91 117.66 91 118.32 91 119 C93.31 119 95.62 119 98 119 C98 118.34 98 117.68 98 117 C98.75 117.02 99.5 117.05 100.27 117.07 C101.25 117.09 102.24 117.11 103.25 117.12 C104.22 117.15 105.2 117.17 106.2 117.2 C109.09 116.99 110.49 116.33 113 115 C114.58 114.75 116.16 114.55 117.75 114.38 C123.09 113.48 127.51 111.59 132.31 109.19 C133.32 108.69 133.32 108.69 134.34 108.18 C137.56 106.52 140.4 104.78 143.16 102.42 C147.38 98.82 152.1 96.55 157 94 C158.06 93.41 159.11 92.82 160.2 92.21 C161.25 91.65 162.3 91.08 163.38 90.5 C164.81 89.71 164.81 89.71 166.27 88.91 C169 88 169 88 171.85 88.84 C172.92 89.42 172.92 89.42 174 90 C175.79 96.71 173.9 101.81 171 108 C170.34 108.66 169.68 109.32 169 110 C168.67 110.66 168.34 111.32 168 112 C167 114 167 114 165 116 C164.71 116.62 164.42 117.24 164.12 117.88 C162.77 120.44 161.09 121.97 159 124 C158.1 125.08 157.21 126.17 156.33 127.26 C153.08 131.06 149.51 134.04 145.5 137 C144.45 137.78 144.45 137.78 143.39 138.57 C132.27 146.61 118.22 154.8 104.11 154.08 C100.66 153.95 97.4 154.45 94 155 C93.67 155.33 93.34 155.66 93 156 C91.33 156.04 89.67 156.04 88 156 C88 155.34 88 154.68 88 154 C87.37 154.13 86.74 154.26 86.09 154.39 C74.46 156.19 64.24 151.53 54.72 145.07 C19.99 118.58 2.93 76.56 -6 35 C-6.33 35 -6.66 35 -7 35 C-7 33.02 -7 31.04 -7 29 C-7.33 29 -7.66 29 -8 29 C-8.09 25.65 -8.14 22.29 -8.19 18.94 C-8.21 17.99 -8.24 17.05 -8.26 16.08 C-8.32 10.28 -7.95 6.06 -5 1 C-2 0 -2 0 0 0 Z M160 116 C160.33 116.66 160.66 117.32 161 118 C161.66 117.67 162.32 117.34 163 117 C162.01 116.67 161.02 116.34 160 116 Z " fill="#000205" transform="translate(121,328)"/>
<path d="M0 0 C5.51 2.33 10.78 5.08 16 8 C17 8.56 18 9.11 19.03 9.69 C24.34 12.86 28.99 16.55 33.56 20.69 C34.08 21.15 34.59 21.62 35.12 22.09 C37.71 24.52 39.68 26.68 41 30 C41.66 30 42.32 30 43 30 C44.71 32.24 46.27 34.46 47.81 36.81 C48.26 37.49 48.71 38.18 49.17 38.88 C55.73 49.02 60.07 59.17 60.69 71.31 C60.73 72.03 60.78 72.74 60.83 73.48 C61.13 78.74 61.13 78.74 60 81 C60 81.99 60 82.98 60 84 C60 87 60 87 59 89 C58.86 90.34 58.76 91.68 58.67 93.03 C58.13 98.32 56.38 102.72 54.25 107.56 C53.91 108.36 53.58 109.16 53.23 109.98 C47.26 123.87 47.26 123.87 43 126 C42.67 126.66 42.34 127.32 42 128 C40 131 40 131 38 133 C37.67 133.66 37.34 134.32 37 135 C36.34 135.66 35.68 136.32 35 137 C34.67 137.99 34.34 138.98 34 140 C33.36 140.31 32.72 140.62 32.06 140.94 C29.86 141.82 29.86 141.82 29.05 143.91 C27.67 146.65 25.56 148.15 23.22 150.08 C20.39 152.53 17.72 155.12 15.06 157.75 C14.32 158.48 14.32 158.48 13.56 159.22 C12.33 160.44 11.16 161.72 10 163 C10 163.66 10 164.32 10 165 C9.4 165.08 8.8 165.16 8.19 165.25 C5.38 166.21 4.72 167.63 3 170 C1.67 170.67 0.33 171.33 -1 172 C-1.33 172.99 -1.66 173.98 -2 175 C-2.99 175.33 -3.98 175.66 -5 176 C-5.66 176.33 -6.32 176.66 -7 177 C-7 177.66 -7 178.32 -7 179 C-8.66 179.62 -10.32 180.24 -11.98 180.86 C-14.2 181.99 -14.2 181.99 -16.23 184.32 C-19.57 187.55 -23.02 189.5 -27.12 191.62 C-27.88 192.02 -28.63 192.41 -29.41 192.81 C-37.42 196.88 -44.97 200.21 -54 198 C-54.33 196.68 -54.66 195.36 -55 194 C-48.99 188.38 -42.85 183.2 -36.2 178.36 C-32.78 175.83 -32.78 175.83 -31 172 C-30.42 171.9 -29.85 171.79 -29.25 171.69 C-25.74 170.62 -24.27 167.79 -22 165 C-20.68 164.32 -19.34 163.65 -18 163 C-15.65 161.05 -13.53 158.86 -11.38 156.69 C-10.79 156.12 -10.2 155.55 -9.6 154.96 C-6.41 151.78 -4.54 149.3 -3 145 C-2.01 144.34 -1.02 143.68 0 143 C1.04 141.36 2.03 139.69 3 138 C4.06 136.58 5.12 135.16 6.19 133.75 C19.41 114.97 24.53 93.23 20.94 70.56 C18 54.13 8.24 41 -4 30 C-4.99 29.5 -4.99 29.5 -6 29 C-6 28.34 -6 27.68 -6 27 C-6.89 26.58 -6.89 26.58 -7.79 26.16 C-9.87 25.07 -11.55 23.9 -13.38 22.43 C-13.99 21.95 -14.6 21.46 -15.23 20.96 C-15.86 20.46 -16.48 19.96 -17.12 19.44 C-21.35 15.89 -21.35 15.89 -26 13 C-26 12.34 -26 11.68 -26 11 C-26.87 10.63 -26.87 10.63 -27.75 10.25 C-30.39 8.78 -32.07 7.32 -34 5 C-34.75 2.25 -34.75 2.25 -35 0 C-25.96 -8.51 -10.37 -3.93 0 0 Z M23 75 C24 79 24 79 24 79 Z M23 92 C24 95 24 95 24 95 Z " fill="#4B6099" transform="translate(326,285)"/>
<path d="M0 0 C0.98 0.01 1.96 0.03 2.97 0.04 C3.95 0.05 4.93 0.06 5.94 0.06 C8.47 0.23 8.47 0.23 10.47 1.23 C10.47 3.21 10.47 5.19 10.47 7.23 C11.21 6.72 11.21 6.72 11.97 6.21 C12.65 5.76 13.33 5.31 14.03 4.86 C14.69 4.41 15.35 3.97 16.04 3.52 C24.43 -0.93 34.79 -1.29 43.86 1.14 C54.44 5.28 60.49 11.05 65.47 21.23 C68.98 29.83 68.48 40.19 65.51 48.85 C61.36 58.34 54.7 65.54 45.05 69.48 C37.06 71.81 28.32 72.15 20.47 69.23 C19.02 68.41 17.6 67.55 16.21 66.64 C15.5 66.19 14.8 65.74 14.07 65.28 C13.54 64.93 13.01 64.59 12.47 64.23 C12.45 65.07 12.43 65.91 12.41 66.77 C12.33 69.87 12.24 72.98 12.15 76.08 C12.09 78.09 12.05 80.1 12 82.1 C11.96 83.36 11.92 84.62 11.88 85.91 C11.85 87.07 11.82 88.24 11.79 89.43 C11.47 92.23 11.47 92.23 9.47 94.23 C6.46 94.46 6.46 94.46 2.91 94.42 C1.73 94.41 0.55 94.41 -0.66 94.4 C-3.53 94.23 -3.53 94.23 -4.53 93.23 C-4.64 90.41 -4.68 87.62 -4.68 84.8 C-4.68 83.91 -4.68 83.03 -4.69 82.11 C-4.7 79.18 -4.7 76.24 -4.7 73.3 C-4.7 71.26 -4.71 69.23 -4.71 67.19 C-4.72 62.93 -4.72 58.66 -4.72 54.39 C-4.72 48.9 -4.73 43.42 -4.75 37.94 C-4.76 33.74 -4.76 29.53 -4.76 25.33 C-4.76 23.31 -4.77 21.29 -4.77 19.26 C-4.78 16.44 -4.78 13.62 -4.77 10.8 C-4.78 9.95 -4.79 9.11 -4.79 8.24 C-4.75 0.43 -4.75 0.43 0 0 Z M13.6 23.55 C10.03 28.87 10.98 36.14 11.47 42.23 C13.23 48.51 16.73 51.93 22.23 55.31 C27.87 57.62 35.2 56.93 40.91 55.17 C45.89 51.4 49.52 47.22 51.47 41.23 C52.22 34.68 52.03 27.95 48.47 22.23 C44.48 17.81 40.22 14.65 34.22 13.98 C25.03 13.53 19.36 16.5 13.6 23.55 Z " fill="#000204" transform="translate(1100.53125,341.76953125)"/>
<path d="M0 0 C2.3 2.23 4.09 4.42 6 7 C2.7 10.3 -0.6 13.6 -4 17 C-5.18 16.07 -6.35 15.14 -7.56 14.19 C-12.99 10.13 -18.15 7.68 -25 7 C-25.63 6.94 -26.27 6.87 -26.92 6.8 C-36.02 6.31 -45.05 8.88 -52.06 14.75 C-58.62 21.2 -61.12 28.11 -61.25 37.19 C-61.16 45.79 -59.28 53.76 -53 60 C-43.54 66.97 -34.63 68.86 -23 68 C-19.65 67.41 -16.32 66.73 -13 66 C-13.02 65.17 -13.03 64.34 -13.05 63.48 C-13.1 60.39 -13.14 57.29 -13.16 54.2 C-13.19 52.21 -13.23 50.21 -13.26 48.22 C-13.27 46.96 -13.28 45.71 -13.29 44.42 C-13.31 43.26 -13.32 42.1 -13.34 40.91 C-13 38 -13 38 -11.67 36.12 C-9.01 34.34 -6.59 34.64 -3.44 34.69 C-1.7 34.69 -1.7 34.69 0.07 34.7 C3 35 3 35 5 37 C5.29 39.58 5.45 42.05 5.51 44.64 C5.53 45.4 5.55 46.16 5.57 46.94 C5.6 48.55 5.63 50.16 5.65 51.77 C5.67 53.42 5.72 55.06 5.79 56.7 C6.35 70.3 6.35 70.3 3.12 74.37 C0.8 75.95 -1.37 77.02 -4 78 C-5.36 78.69 -5.36 78.69 -6.75 79.39 C-21.82 85.15 -36.39 85.9 -51.65 79.97 C-62.44 75.05 -70.5 66.98 -75.25 56.14 C-79.39 44.56 -80.2 30.38 -75 19 C-69.17 7 -60.54 -1.3 -48 -6 C-31.71 -10.67 -14.18 -10.36 0 0 Z M-12 38 C-12 45.59 -12 53.18 -12 61 C-11.67 61 -11.34 61 -11 61 C-11 53.41 -11 45.82 -11 38 C-11.33 38 -11.66 38 -12 38 Z M-12 62 C-11 64 -11 64 -11 64 Z " fill="#000204" transform="translate(873,329)"/>
<path d="M0 0 C1.09 0 2.19 0 3.32 0 C5.17 -0 5.17 -0 7.07 -0.01 C8.42 0 9.78 0.01 11.14 0.02 C12.52 0.02 13.9 0.02 15.29 0.02 C18.19 0.02 21.09 0.03 24 0.04 C27.73 0.06 31.45 0.06 35.18 0.06 C38.04 0.06 40.9 0.07 43.76 0.07 C45.14 0.08 46.51 0.08 47.89 0.08 C49.8 0.08 51.72 0.09 53.64 0.1 C55.28 0.11 55.28 0.11 56.95 0.11 C59.41 0.25 59.41 0.25 60.41 1.25 C60.51 3.41 60.54 5.58 60.54 7.75 C60.54 9.53 60.54 9.53 60.55 11.34 C60.41 14.25 60.41 14.25 59.41 15.25 C57.94 15.34 56.46 15.36 54.98 15.36 C54.04 15.36 53.1 15.36 52.13 15.36 C51.11 15.36 50.09 15.35 49.03 15.34 C47.99 15.34 46.95 15.34 45.88 15.34 C42.53 15.33 39.19 15.32 35.85 15.31 C33.59 15.3 31.33 15.3 29.07 15.3 C23.52 15.29 17.97 15.27 12.41 15.25 C12.41 23.83 12.41 32.41 12.41 41.25 C16.82 41.21 16.82 41.21 21.31 41.18 C24.15 41.16 26.98 41.15 29.82 41.14 C31.79 41.13 33.77 41.11 35.74 41.1 C38.58 41.07 41.41 41.06 44.25 41.05 C45.13 41.04 46.02 41.03 46.93 41.02 C49.1 41.02 51.26 41.12 53.41 41.25 C55.41 43.25 55.41 43.25 55.64 46.03 C55.63 47.11 55.61 48.2 55.6 49.31 C55.59 50.39 55.59 51.48 55.58 52.59 C55.41 55.25 55.41 55.25 54.41 56.25 C51.31 56.34 48.23 56.36 45.13 56.34 C44.2 56.34 43.27 56.34 42.31 56.34 C39.32 56.33 36.34 56.32 33.35 56.31 C31.33 56.3 29.31 56.3 27.29 56.3 C22.33 56.29 17.37 56.27 12.41 56.25 C12.42 57.24 12.43 58.23 12.44 59.24 C12.48 62.91 12.5 66.57 12.52 70.24 C12.53 71.82 12.55 73.41 12.56 75 C12.59 77.28 12.6 79.55 12.61 81.83 C12.62 82.54 12.63 83.26 12.64 83.99 C12.64 85.74 12.53 87.5 12.41 89.25 C10.41 91.25 10.41 91.25 7.44 91.51 C6.28 91.51 5.11 91.5 3.91 91.5 C2.75 91.5 1.58 91.51 0.38 91.51 C-2.59 91.25 -2.59 91.25 -4.59 89.25 C-4.79 86.49 -4.86 83.83 -4.85 81.07 C-4.85 80.22 -4.85 79.37 -4.86 78.5 C-4.87 75.7 -4.86 72.9 -4.85 70.09 C-4.85 68.15 -4.86 66.21 -4.86 64.26 C-4.86 60.19 -4.86 56.11 -4.85 52.04 C-4.84 46.8 -4.84 41.57 -4.86 36.34 C-4.86 32.33 -4.86 28.31 -4.86 24.3 C-4.85 22.37 -4.86 20.44 -4.86 18.51 C-4.87 15.82 -4.86 13.12 -4.85 10.43 C-4.85 9.63 -4.85 8.82 -4.86 7.99 C-4.8 0.46 -4.8 0.46 0 0 Z " fill="#000204" transform="translate(420.58753967285156,320.7527618408203)"/>
<path d="M0 0 C5.23 5.84 8.23 13.2 8.27 21.02 C8.28 21.93 8.28 22.85 8.29 23.79 C8.29 24.77 8.29 25.75 8.29 26.76 C8.3 28.27 8.3 28.27 8.3 29.82 C8.31 31.95 8.31 34.09 8.31 36.22 C8.31 39.49 8.33 42.77 8.35 46.04 C8.35 48.11 8.35 50.19 8.36 52.26 C8.36 53.24 8.37 54.22 8.38 55.24 C8.37 56.15 8.37 57.05 8.37 57.99 C8.37 58.79 8.37 59.59 8.37 60.42 C8.12 62.38 8.12 62.38 6.12 64.38 C3.3 64.57 3.3 64.57 0 64.5 C-1.1 64.48 -2.19 64.46 -3.32 64.45 C-4.16 64.42 -5.01 64.4 -5.88 64.38 C-6.21 62.73 -6.53 61.07 -6.88 59.38 C-7.73 59.9 -7.73 59.9 -8.61 60.43 C-17.54 65.45 -26.16 66.4 -36.19 64.38 C-43.46 62.26 -48.04 58.48 -51.88 52 C-53.86 44.79 -53.58 39.03 -49.88 32.38 C-44.06 25.64 -38.44 23.6 -29.88 22.38 C-25.99 22.16 -22.14 22.18 -18.25 22.25 C-16.74 22.26 -16.74 22.26 -15.21 22.28 C-12.76 22.3 -10.32 22.33 -7.88 22.38 C-8.33 20.91 -8.79 19.46 -9.25 18 C-9.51 17.19 -9.76 16.38 -10.02 15.54 C-11.1 12.81 -12.26 11.68 -14.88 10.38 C-22.25 7.92 -29.31 8.81 -36.31 11.94 C-37.26 12.41 -38.21 12.89 -39.18 13.38 C-42.31 14.54 -43.77 14.54 -46.88 13.38 C-48.27 11.89 -48.27 11.89 -49.25 10.06 C-49.59 9.47 -49.93 8.87 -50.27 8.26 C-51.04 5.85 -50.85 4.7 -49.88 2.38 C-37.05 -9.73 -14.16 -8 0 0 Z M-36.88 39.38 C-37.8 42.15 -37.57 44.55 -36.88 47.38 C-34.16 50.9 -31.37 51.68 -27.12 52.31 C-21.22 52.66 -16 51.73 -11.2 48.12 C-9.21 46.06 -7.95 44.18 -7.69 41.3 C-7.71 40.6 -7.73 39.89 -7.75 39.17 C-7.79 37.92 -7.83 36.66 -7.88 35.38 C-11.77 35.26 -15.67 35.19 -19.56 35.12 C-20.67 35.09 -21.77 35.06 -22.9 35.02 C-30.83 34.74 -30.83 34.74 -36.88 39.38 Z " fill="#000204" transform="translate(535.875,347.625)"/>
<path d="M0 0 C7.71 5.18 12.76 12.74 14.8 21.75 C15.89 34.14 14.85 44.28 6.67 54.12 C-0.76 61.8 -9.85 65.52 -20.46 65.85 C-31.17 65.55 -39.67 62.3 -47.64 55.06 C-54.62 47.49 -57.56 38.05 -57.35 27.88 C-56.68 18.03 -52.73 9.8 -45.58 2.94 C-32.08 -7.81 -14.8 -8.4 0 0 Z M-37.2 15.75 C-41.1 23.49 -43.08 29.82 -40.35 38.18 C-38.13 43.16 -34.77 47.44 -29.87 49.94 C-24.11 51.69 -17.48 51.87 -11.75 49.91 C-6.72 47.06 -3.38 43.09 -1.2 37.75 C0.96 29.54 -0.7 22.17 -4.83 14.88 C-10.07 10.18 -16.05 8.07 -23.07 8.43 C-28.56 9.26 -33.41 11.75 -37.2 15.75 Z " fill="#000204" transform="translate(990.203125,347.25)"/>
<path d="M0 0 C1.09 0.02 2.18 0.05 3.3 0.07 C4.4 0.09 5.5 0.11 6.62 0.12 C7.47 0.15 8.31 0.17 9.18 0.2 C10.17 2.18 11.16 4.16 12.18 6.2 C13.03 5.58 13.87 4.96 14.74 4.32 C22.02 -1.01 31.63 -0.51 40.18 0.2 C47.32 1.78 52.9 5.22 57.18 11.2 C61.83 19.88 62.33 28.79 62.35 38.44 C62.35 39.71 62.35 39.71 62.36 41.01 C62.36 42.79 62.37 44.57 62.36 46.35 C62.37 49.08 62.39 51.82 62.4 54.55 C62.41 56.28 62.41 58.02 62.41 59.75 C62.42 60.57 62.42 61.39 62.43 62.23 C62.41 67.97 62.41 67.97 60.18 70.2 C57.14 70.39 57.14 70.39 53.55 70.32 C52.37 70.3 51.18 70.28 49.95 70.27 C49.04 70.24 48.12 70.22 47.18 70.2 C44.92 65.72 44.97 61.57 45.09 56.68 C45.11 55 45.13 53.32 45.15 51.64 C45.19 49.01 45.24 46.39 45.3 43.76 C45.34 41.21 45.37 38.66 45.4 36.11 C45.42 35.34 45.45 34.56 45.47 33.77 C45.52 28.26 44.49 24.22 42.18 19.2 C37.24 15.27 32.37 14.78 26.18 15.2 C21.95 16.2 18.94 17.45 15.8 20.51 C12.25 26.39 11.87 31.8 11.8 38.5 C11.78 39.37 11.77 40.25 11.75 41.15 C11.7 43.94 11.66 46.72 11.62 49.51 C11.57 52.31 11.53 55.11 11.47 57.92 C11.44 59.66 11.42 61.4 11.39 63.14 C11.29 69.08 11.29 69.08 10.18 70.2 C8.04 70.32 5.89 70.37 3.74 70.38 C1.98 70.4 1.98 70.4 0.18 70.43 C-2.82 70.2 -2.82 70.2 -4.82 68.2 C-5.07 65.46 -5.07 65.46 -5.08 61.94 C-5.09 60.63 -5.09 59.31 -5.1 57.96 C-5.09 56.52 -5.09 55.07 -5.09 53.63 C-5.09 52.16 -5.09 50.69 -5.09 49.22 C-5.09 46.13 -5.09 43.04 -5.08 39.96 C-5.07 35.99 -5.08 32.03 -5.09 28.07 C-5.1 25.03 -5.09 21.99 -5.09 18.95 C-5.09 17.49 -5.09 16.03 -5.09 14.57 C-5.1 12.53 -5.09 10.49 -5.08 8.45 C-5.08 6.71 -5.08 6.71 -5.07 4.93 C-4.72 1.08 -3.85 0.27 0 0 Z " fill="#000204" transform="translate(563.8203125,341.8046875)"/>
<path d="M0 0 C1.07 0.01 2.14 0.01 3.25 0.02 C4.86 0.01 4.86 0.01 6.5 0 C9.25 0.27 9.25 0.27 11.25 2.27 C11.51 4.09 11.51 4.09 11.52 6.33 C11.53 7.17 11.54 8.01 11.55 8.87 C11.55 9.78 11.56 10.69 11.56 11.62 C11.58 13.54 11.61 15.46 11.63 17.38 C11.66 20.42 11.69 23.45 11.71 26.48 C11.73 29.4 11.77 32.32 11.81 35.25 C11.81 36.14 11.81 37.04 11.81 37.97 C11.89 43.48 12.6 47.4 15.25 52.27 C20.29 56.17 26.16 56.01 32.25 55.27 C36.21 54.28 39.21 52.9 41.45 49.38 C44.03 43.68 44.83 38.93 44.79 32.71 C44.8 31.84 44.81 30.97 44.82 30.07 C44.86 27.32 44.87 24.58 44.88 21.83 C44.89 19.06 44.91 16.28 44.95 13.51 C44.97 11.79 44.98 10.08 44.97 8.36 C45.03 2.49 45.03 2.49 47.25 0.27 C50 0 50 0 53.25 0.02 C54.32 0.01 55.39 0.01 56.5 0 C59.25 0.27 59.25 0.27 61.25 2.27 C61.5 5 61.5 5 61.51 8.52 C61.52 9.83 61.52 11.15 61.53 12.5 C61.52 13.95 61.52 15.39 61.52 16.83 C61.52 18.3 61.52 19.77 61.52 21.24 C61.52 24.33 61.52 27.42 61.51 30.5 C61.5 34.47 61.51 38.43 61.52 42.39 C61.53 45.43 61.52 48.47 61.52 51.51 C61.52 52.97 61.52 54.43 61.52 55.89 C61.53 57.93 61.52 59.97 61.51 62.01 C61.51 63.17 61.51 64.34 61.5 65.53 C61.25 68.27 61.25 68.27 59.25 70.27 C56.46 70.5 56.46 70.5 53.19 70.45 C51.56 70.44 51.56 70.44 49.9 70.43 C47.25 70.27 47.25 70.27 46.25 69.27 C46.21 67.6 46.21 65.93 46.25 64.27 C45.52 64.69 44.8 65.11 44.05 65.54 C34.32 70.84 25.46 72.68 14.57 70.05 C7.25 67.56 1.94 63.05 -1.83 56.34 C-5.93 47.06 -5.28 37.26 -5.16 27.32 C-5.12 24.18 -5.12 21.04 -5.12 17.9 C-5.11 15.91 -5.1 13.91 -5.09 11.92 C-5.08 10.98 -5.08 10.04 -5.08 9.07 C-5.07 8.21 -5.05 7.34 -5.04 6.45 C-5.03 5.69 -5.03 4.93 -5.02 4.14 C-4.55 0.83 -3.16 0.31 0 0 Z " fill="#000204" transform="translate(644.75,341.734375)"/>
<path d="M0 0 C0.98 -0 1.96 -0.01 2.97 -0.01 C5.5 0.12 5.5 0.12 7.5 1.12 C7.51 2.28 7.53 3.44 7.54 4.64 C7.6 8.98 7.68 13.32 7.76 17.67 C7.8 19.54 7.82 21.41 7.85 23.28 C7.41 37.67 7.41 37.67 11.5 51.12 C16.26 55.3 20.68 55.41 26.77 55.34 C31.59 54.96 34.35 53.25 37.75 49.94 C40.94 44.81 41.61 39.03 42.5 33.12 C41.84 33.12 41.18 33.12 40.5 33.12 C40.5 22.56 40.5 12 40.5 1.12 C43.99 0.25 46.58 -0.01 50.12 0 C51.09 -0 52.05 -0.01 53.04 -0.01 C55.5 0.12 55.5 0.12 57.5 1.12 C57.52 9.97 57.54 18.82 57.55 27.67 C57.56 31.78 57.56 35.89 57.58 40 C57.59 43.96 57.59 47.92 57.59 51.88 C57.6 53.4 57.6 54.91 57.61 56.43 C57.61 58.54 57.61 60.65 57.61 62.77 C57.62 63.98 57.62 65.18 57.62 66.42 C57.5 69.12 57.5 69.12 56.5 70.12 C54.55 70.33 52.59 70.44 50.62 70.5 C49.56 70.55 48.49 70.6 47.38 70.65 C44.5 70.12 44.5 70.12 42.62 67.6 C42.25 66.78 41.88 65.97 41.5 65.12 C40.92 65.47 40.33 65.82 39.73 66.18 C30.77 71.16 21.82 72.33 11.81 69.91 C4.86 67.55 -0.45 63.21 -4.5 57.12 C-7.6 50.51 -7.91 44.17 -7.79 36.96 C-7.79 35.93 -7.78 34.9 -7.78 33.84 C-7.76 30.58 -7.73 27.32 -7.69 24.06 C-7.67 21.84 -7.66 19.62 -7.65 17.39 C-7.61 11.97 -7.56 6.55 -7.5 1.12 C-4.89 -0.18 -2.91 -0.01 0 0 Z M41.5 2.12 C42.5 4.12 42.5 4.12 42.5 4.12 Z M41.5 5.12 C41.5 14.04 41.5 22.94 41.5 32.12 C41.83 32.12 42.16 32.12 42.5 32.12 C42.5 23.21 42.5 14.31 42.5 5.12 C42.17 5.12 41.84 5.12 41.5 5.12 Z " fill="#000204" transform="translate(1022.5,341.875)"/>
<path d="M0 0 C1.09 0.02 2.18 0.05 3.3 0.07 C4.4 0.09 5.5 0.11 6.62 0.12 C7.47 0.15 8.31 0.17 9.18 0.2 C10.17 2.18 11.16 4.16 12.18 6.2 C13.03 5.58 13.87 4.96 14.74 4.32 C20.57 0.47 26.37 -0.16 33.18 0.2 C34.18 1.2 34.18 1.2 34.31 4.1 C34.31 5.29 34.31 6.47 34.3 7.7 C34.31 9.47 34.31 9.47 34.31 11.29 C34.18 14.2 34.18 14.2 33.18 15.2 C31.29 15.47 29.39 15.71 27.49 15.95 C21.76 16.88 18.95 17.75 15.18 22.2 C12.51 28.13 11.73 33.01 11.7 39.47 C11.68 40.75 11.68 40.75 11.66 42.05 C11.61 44.75 11.58 47.44 11.55 50.13 C11.52 52.85 11.48 55.57 11.43 58.29 C11.4 59.97 11.38 61.66 11.37 63.34 C11.29 69.08 11.29 69.08 10.18 70.2 C8.04 70.32 5.89 70.37 3.74 70.38 C1.98 70.4 1.98 70.4 0.18 70.43 C-2.82 70.2 -2.82 70.2 -4.82 68.2 C-5.07 65.46 -5.07 65.46 -5.08 61.94 C-5.09 60.63 -5.09 59.31 -5.1 57.96 C-5.09 56.52 -5.09 55.07 -5.09 53.63 C-5.09 52.16 -5.09 50.69 -5.09 49.22 C-5.09 46.13 -5.09 43.04 -5.08 39.96 C-5.07 35.99 -5.08 32.03 -5.09 28.07 C-5.1 25.03 -5.09 21.99 -5.09 18.95 C-5.09 17.49 -5.09 16.03 -5.09 14.57 C-5.1 12.53 -5.09 10.49 -5.08 8.45 C-5.08 6.71 -5.08 6.71 -5.07 4.93 C-4.72 1.08 -3.85 0.27 0 0 Z " fill="#000204" transform="translate(725.8203125,341.8046875)"/>
<path d="M0 0 C0.98 -0.01 1.96 -0.03 2.97 -0.04 C5.5 0.19 5.5 0.19 7.5 2.19 C8.12 4.31 8.12 4.31 8.5 6.19 C9.35 5.57 10.19 4.95 11.06 4.31 C17.04 0.38 23.48 -0.46 30.5 0.19 C31.5 1.19 31.5 1.19 31.6 4.13 C31.59 5.32 31.57 6.52 31.56 7.75 C31.55 8.95 31.54 10.15 31.54 11.38 C31.52 12.31 31.51 13.23 31.5 14.19 C30.2 14.44 30.2 14.44 28.87 14.7 C19.95 16.42 19.95 16.42 12.5 21.19 C8.47 27.58 8.35 34.24 8.22 41.61 C8.18 43.23 8.14 44.85 8.11 46.46 C8.05 49 8 51.53 7.95 54.06 C7.9 56.52 7.84 58.97 7.78 61.43 C7.77 62.19 7.75 62.95 7.74 63.74 C7.61 69.07 7.61 69.07 6.5 70.19 C4.34 70.29 2.17 70.32 0 70.31 C-1.19 70.32 -2.37 70.32 -3.59 70.32 C-6.5 70.19 -6.5 70.19 -7.5 69.19 C-7.59 67.07 -7.62 64.95 -7.61 62.83 C-7.61 62.17 -7.61 61.51 -7.61 60.82 C-7.61 58.62 -7.61 56.42 -7.6 54.21 C-7.6 52.69 -7.59 51.17 -7.59 49.65 C-7.59 45.63 -7.58 41.61 -7.57 37.6 C-7.56 33.5 -7.55 29.41 -7.55 25.31 C-7.54 17.27 -7.52 9.23 -7.5 1.19 C-4.9 -0.11 -2.9 0.02 0 0 Z " fill="#000204" transform="translate(900.5,341.8125)"/>
<path d="M0 0 C2.94 0.98 4.61 2.04 7.06 3.88 C7.75 4.39 8.45 4.9 9.16 5.43 C11 7 11 7 13 10 C13 13 13 13 11.76 14.44 C7.35 18.12 2.85 21.05 -2.25 23.69 C-2.99 24.07 -3.74 24.46 -4.5 24.86 C-12.49 28.91 -20.01 32.2 -29 30 C-29.33 28.68 -29.66 27.36 -30 26 C-23.99 20.38 -17.85 15.2 -11.2 10.36 C-7.78 7.83 -7.78 7.83 -6 4 C-4.67 3.66 -3.34 3.32 -2 3 C-1.34 2.01 -0.68 1.02 0 0 Z " fill="#020408" transform="translate(301,453)"/>
<path d="M0 0 C1.79 6.71 -0.1 11.81 -3 18 C-3.66 18.66 -4.32 19.32 -5 20 C-5.33 20.66 -5.66 21.32 -6 22 C-7 24 -7 24 -9 26 C-9.99 26.33 -10.98 26.66 -12 27 C-14.2 25.78 -14.2 25.78 -16.69 23.94 C-17.57 23.29 -18.45 22.65 -19.35 21.98 C-20.23 21.33 -21.1 20.67 -22 20 C-22.79 19.43 -23.58 18.86 -24.4 18.27 C-29.86 14.28 -29.86 14.28 -31 12 C-26.35 9.35 -21.7 6.73 -17.02 4.13 C-15.3 3.17 -13.59 2.2 -11.89 1.22 C-11.04 0.75 -10.19 0.29 -9.31 -0.19 C-8.59 -0.59 -7.86 -1 -7.11 -1.42 C-4.2 -2.22 -2.64 -1.32 0 0 Z " fill="#4B609A" transform="translate(295,418)"/>
<path d="M0 0 C0.99 2.54 1.96 5.08 2.94 7.62 C3.22 8.34 3.49 9.05 3.78 9.79 C5.31 13.82 6.69 17.66 7 22 C6.34 22.66 5.68 23.32 5 24 C1.49 24 -1.56 23.62 -5 23 C-5.66 24.32 -6.32 25.64 -7 27 C-8.94 8.15 -8.94 8.15 -5 1 C-2 0 -2 0 0 0 Z " fill="#4A5F98" transform="translate(121,328)"/>
<path d="M0 0 C0.33 0 0.66 0 1 0 C1 11.22 1 22.44 1 34 C0.67 34 0.34 34 0 34 C0 22.78 0 11.56 0 0 Z " fill="#000204" transform="translate(608,373)"/>
<path d="M0 0 C0 3 0 3 -2.5 5.69 C-3.32 6.45 -4.15 7.21 -5 8 C-5.66 7.67 -6.32 7.34 -7 7 C-4.69 4.69 -2.38 2.38 0 0 Z " fill="#232E4A" transform="translate(348,436)"/>
<path d="M0 0 C1.65 0 3.3 0 5 0 C5 0.33 5 0.66 5 1 C3.35 1 1.7 1 0 1 C0 0.67 0 0.34 0 0 Z " fill="#4C619B" transform="translate(215,483)"/>
<path d="M0 0 C1.65 0 3.3 0 5 0 C5 0.33 5 0.66 5 1 C3.35 1 1.7 1 0 1 C0 0.67 0 0.34 0 0 Z " fill="#4C619B" transform="translate(203,483)"/>
<path d="M0 0 C0 0.99 0 1.98 0 3 C-0.66 2.67 -1.32 2.34 -2 2 C-1.34 1.34 -0.68 0.68 0 0 Z " fill="#1E2840" transform="translate(333,450)"/>
<path d="M0 0 C0 0.99 0 1.98 0 3 C-0.66 2.67 -1.32 2.34 -2 2 C-1.34 1.34 -0.68 0.68 0 0 Z " fill="#1E2840" transform="translate(357,426)"/>
<path d="M0 0 C0 0.99 0 1.98 0 3 C-0.66 2.67 -1.32 2.34 -2 2 C-1.34 1.34 -0.68 0.68 0 0 Z " fill="#1E2840" transform="translate(184,284)"/>
<path d="M0 0 C0 0.99 0 1.98 0 3 C-0.66 2.67 -1.32 2.34 -2 2 C-1.34 1.34 -0.68 0.68 0 0 Z " fill="#1E2840" transform="translate(190,278)"/>
<path d="M0 0 C3 1 3 1 3 1 Z " fill="#192136" transform="translate(223,482)"/>
<path d="" fill="#4C619B" transform="translate(0,0)"/>
<path d="M0 0 C2 1 2 1 2 1 Z " fill="#4C619B" transform="translate(225,234)"/>
<path d="" fill="#000204" transform="translate(0,0)"/>
<path d="" fill="#000204" transform="translate(0,0)"/>
<path d="" fill="#000204" transform="translate(0,0)"/>
<path d="" fill="#000204" transform="translate(0,0)"/>
<path d="" fill="#000204" transform="translate(0,0)"/>
<path d="" fill="#000204" transform="translate(0,0)"/>
<path d="" fill="#000204" transform="translate(0,0)"/>
<path d="" fill="#000204" transform="translate(0,0)"/>
<path d="" fill="#000204" transform="translate(0,0)"/>
<path d="" fill="#4C619B" transform="translate(0,0)"/>
<path d="" fill="#000204" transform="translate(0,0)"/>
<path d="" fill="#4C619B" transform="translate(0,0)"/>
<path d="" fill="#000204" transform="translate(0,0)"/>
<path d="" fill="#4C619B" transform="translate(0,0)"/>
<path d="" fill="#000204" transform="translate(0,0)"/>
<path d="" fill="#4C619B" transform="translate(0,0)"/>
<path d="" fill="#000204" transform="translate(0,0)"/>
<path d="" fill="#4C619B" transform="translate(0,0)"/>
<path d="" fill="#000204" transform="translate(0,0)"/>
<path d="" fill="#4C619B" transform="translate(0,0)"/>
<path d="" fill="#000204" transform="translate(0,0)"/>
<path d="" fill="#4C619B" transform="translate(0,0)"/>
<path d="" fill="#4C619B" transform="translate(0,0)"/>
<path d="" fill="#4C619B" transform="translate(0,0)"/>
<path d="" fill="#4C619B" transform="translate(0,0)"/>
<path d="" fill="#4C619B" transform="translate(0,0)"/>
<path d="" fill="#4C619B" transform="translate(0,0)"/>
<path d="" fill="#000204" transform="translate(0,0)"/>
<path d="" fill="#4C619B" transform="translate(0,0)"/>
<path d="" fill="#4C619B" transform="translate(0,0)"/>
<path d="" fill="#000204" transform="translate(0,0)"/>
<path d="" fill="#4C619B" transform="translate(0,0)"/>
<path d="" fill="#000204" transform="translate(0,0)"/>
<path d="" fill="#4C619B" transform="translate(0,0)"/>
<path d="" fill="#000204" transform="translate(0,0)"/>
<path d="" fill="#000204" transform="translate(0,0)"/>
<path d="" fill="#000204" transform="translate(0,0)"/>
<path d="" fill="#4C619B" transform="translate(0,0)"/>
<path d="" fill="#000204" transform="translate(0,0)"/>
<path d="" fill="#000204" transform="translate(0,0)"/>
<path d="" fill="#000204" transform="translate(0,0)"/>
<path d="" fill="#000204" transform="translate(0,0)"/>
<path d="" fill="#000204" transform="translate(0,0)"/>
<path d="" fill="#000204" transform="translate(0,0)"/>
<path d="" fill="#000204" transform="translate(0,0)"/>
<path d="" fill="#000204" transform="translate(0,0)"/>
<path d="" fill="#000204" transform="translate(0,0)"/>
<path d="" fill="#000204" transform="translate(0,0)"/>
<path d="" fill="#4C619B" transform="translate(0,0)"/>
<path d="" fill="#4C619B" transform="translate(0,0)"/>
<path d="" fill="#000204" transform="translate(0,0)"/>
<path d="" fill="#000204" transform="translate(0,0)"/>
<path d="" fill="#000204" transform="translate(0,0)"/>
<path d="" fill="#000204" transform="translate(0,0)"/>
<path d="" fill="#000204" transform="translate(0,0)"/>
<path d="" fill="#000204" transform="translate(0,0)"/>
<path d="" fill="#000204" transform="translate(0,0)"/>
</svg>
